<svg xmlns="http://www.w3.org/2000/svg" width="1000" height="640" viewBox="0 0 1000 640">
<title>The orchard, vine, fellow trees, gate, nurse log, cloud of witnesses, fire and water</title>
<defs>
 <radialGradient id="warm" cx=".15" cy="1" r=".95"><stop stop-color="#B25B3E" stop-opacity=".18"/><stop offset="1" stop-color="#B25B3E" stop-opacity="0"/></radialGradient>
 <radialGradient id="ember"><stop stop-color="#CE7B5C" stop-opacity=".2"/><stop offset="1" stop-color="#CE7B5C" stop-opacity="0"/></radialGradient>
 <linearGradient id="wash" x2=".8" y2="1"><stop stop-color="#F4F0E9" stop-opacity=".16"/><stop offset="1" stop-color="#F4F0E9" stop-opacity="0"/></linearGradient>
 <filter id="grain"><feTurbulence type="fractalNoise" baseFrequency=".08" numOctaves="3" stitchTiles="stitch"/><feColorMatrix type="saturate" values="0"/><feComponentTransfer><feFuncA type="linear" slope=".035"/></feComponentTransfer><feComposite in2="SourceGraphic" operator="in" result="texture"/><feBlend in="SourceGraphic" in2="texture" mode="soft-light"/></filter>
</defs>
<rect width="1000" height="640" fill="#22201C"/><rect width="1000" height="640" fill="url(#warm)"/><g stroke="#B8AA96" stroke-width="1" fill="none" opacity=".38"><path d="M181 125 C156 94 188 76 205 82 C219 49 265 61 274 82 C310 56 332 84 324 98 C355 95 365 117 345 131 C286 140 231 119 181 125Z"/><path d="M647 102 C626 78 649 59 670 67 C691 39 725 60 727 76 C755 59 786 76 778 92 C804 82 827 107 806 120 C747 127 710 105 647 102Z"/></g><path d="M35 337 C230 319 302 354 482 335 S750 353 963 329" fill="none" stroke="#CE7B5C" stroke-width=".7" opacity=".5"/><g transform="translate(315 337) scale(1.03)"><path d="M-96,-83 C-139,-95 -115,-129 -86,-142 C-53,-157 -58,-183 -14,-183 C20,-190 38,-172 62,-162 C98,-151 118,-143 105,-112 C100,-87 77,-78 43,-85 C17,-86 7,-73 -17,-77 C-46,-65 -73,-70 -96,-83Z" fill="#B25B3E" opacity=".65"/>
    <path d="M-95,-82 C-131,-105 -98,-144 -70,-151 C-31,-191 12,-192 51,-169" stroke="#B25B3E" stroke-width="1.2" opacity=".8" fill="none"/>
    <path d="M-96,-83 C-139,-95 -115,-129 -86,-142 C-53,-157 -58,-183 -14,-183 C20,-190 38,-172 62,-162 C98,-151 118,-143 105,-112 C100,-87 77,-78 43,-85 C17,-86 7,-73 -17,-77 C-46,-65 -73,-70 -96,-83Z" fill="url(#wash)" filter="url(#grain)"/><g stroke="#F4F0E9" fill="none" stroke-linecap="round">
    <path d="M0,0 C-4,-35 8,-45 0,-72 C-6,-104 -12,-128 -27,-146 M0,-66 C-10,-94 -30,-116 -58,-126 M-7,-82 C-21,-91 -37,-100 -62,-102 M0,-58 C6,-90 24,-105 53,-132 M10,-83 C31,-103 51,-101 72,-109 M-10,-100 C-18,-127 -13,-145 -9,-160 M6,-80 C12,-115 10,-137 26,-155" stroke-width="1.45"/>
    <path d="M-33,-117 C-34,-128 -40,-137 -48,-144 M40,-121 L43,-142 M26,-101 C41,-118 57,-120 64,-135" stroke-width=".6" opacity=".65"/>
    </g><circle cx="-9" cy="-160" r="2.3" fill="#B25B3E" opacity=".9"/><circle cx="43" cy="-142" r="2" fill="#B25B3E" opacity=".9"/><circle cx="64" cy="-135" r="1.5" fill="#B25B3E" opacity=".9"/><circle cx="-48" cy="-144" r="1.6" fill="#B25B3E" opacity=".9"/><circle cx="26" cy="-155" r="2" fill="#B25B3E" opacity=".9"/><g fill="none" stroke-linecap="round"><path d="M0,0 C-4,35 -30,60 -66,79 M0,0 C4,37 35,58 71,80 M0,0 C-3,45 4,59 0,96" stroke="#F4F0E9" stroke-width="1.1" opacity=".65"/><path d="M0,0 C-15,54 -18,85 -9,111 M0,0 C15,46 20,71 33,96 M-43,63 C-42,79 -53,84 -52,92" stroke="#CE7B5C" stroke-width=".65" opacity=".6"/></g></g><g transform="translate(670 337) scale(1.05)"><path d="M-96,-83 C-139,-95 -115,-129 -86,-142 C-53,-157 -58,-183 -14,-183 C20,-190 38,-172 62,-162 C98,-151 118,-143 105,-112 C100,-87 77,-78 43,-85 C17,-86 7,-73 -17,-77 C-46,-65 -73,-70 -96,-83Z" fill="#8F9B7A" opacity=".65"/>
    <path d="M-95,-82 C-131,-105 -98,-144 -70,-151 C-31,-191 12,-192 51,-169" stroke="#8F9B7A" stroke-width="1.2" opacity=".8" fill="none"/>
    <path d="M-96,-83 C-139,-95 -115,-129 -86,-142 C-53,-157 -58,-183 -14,-183 C20,-190 38,-172 62,-162 C98,-151 118,-143 105,-112 C100,-87 77,-78 43,-85 C17,-86 7,-73 -17,-77 C-46,-65 -73,-70 -96,-83Z" fill="url(#wash)" filter="url(#grain)"/><g stroke="#F4F0E9" fill="none" stroke-linecap="round">
    <path d="M0,0 C-4,-35 8,-45 0,-72 C-6,-104 -12,-128 -27,-146 M0,-66 C-10,-94 -30,-116 -58,-126 M-7,-82 C-21,-91 -37,-100 -62,-102 M0,-58 C6,-90 24,-105 53,-132 M10,-83 C31,-103 51,-101 72,-109 M-10,-100 C-18,-127 -13,-145 -9,-160 M6,-80 C12,-115 10,-137 26,-155" stroke-width="1.45"/>
    <path d="M-33,-117 C-34,-128 -40,-137 -48,-144 M40,-121 L43,-142 M26,-101 C41,-118 57,-120 64,-135" stroke-width=".6" opacity=".65"/>
    </g><circle cx="-9" cy="-160" r="2.3" fill="#8F9B7A" opacity=".9"/><circle cx="43" cy="-142" r="2" fill="#8F9B7A" opacity=".9"/><circle cx="64" cy="-135" r="1.5" fill="#8F9B7A" opacity=".9"/><circle cx="-48" cy="-144" r="1.6" fill="#8F9B7A" opacity=".9"/><circle cx="26" cy="-155" r="2" fill="#8F9B7A" opacity=".9"/><g fill="none" stroke-linecap="round"><path d="M0,0 C-4,35 -30,60 -66,79 M0,0 C4,37 35,58 71,80 M0,0 C-3,45 4,59 0,96" stroke="#F4F0E9" stroke-width="1.1" opacity=".65"/><path d="M0,0 C-15,54 -18,85 -9,111 M0,0 C15,46 20,71 33,96 M-43,63 C-42,79 -53,84 -52,92" stroke="#CE7B5C" stroke-width=".65" opacity=".6"/></g></g><g stroke="#F4F0E9" fill="none" stroke-linecap="round"><path d="M493 339 C480 312 514 298 496 272 C475 249 514 224 495 201 M505 338 C515 311 487 291 504 269 C525 249 488 226 506 205" stroke-width="1.4"/><path d="M315 337 C335 424 429 458 500 523 M670 337 C652 424 571 458 500 523 M499 338 C491 412 510 460 500 523" stroke-width="1.2" opacity=".8"/></g><g fill="#8F9B7A" opacity=".75"><path d="M494 239 C462 235 460 206 491 221 C502 230 496 234 494 239Z"/><path d="M506 271 C538 270 545 242 512 255 C505 258 504 264 506 271Z"/><path d="M496 308 C469 303 471 280 493 293 C500 297 498 304 496 308Z"/></g><circle cx="500" cy="523" r="7" fill="#CE7B5C"/><g stroke="#B8AA96" fill="none" stroke-linecap="round"><path d="M80 404 L80 296 C82 244 132 244 135 296 L135 404 M80 333 C95 330 119 335 135 332 M80 371 C98 367 117 373 135 370" stroke-width="1.3"/><path d="M91 279 L91 391 M106 271 L106 392 M121 280 L121 391" stroke-width=".6" opacity=".7"/></g><g transform="translate(319 463) rotate(-5)" fill="none" stroke="#B8AA96"><path d="M-52 1 C-32 -4 31 -6 54 -1 L51 15 C13 18 -21 17 -52 13Z" stroke-width="1.1"/><ellipse cx="-52" cy="7" rx="4" ry="7" stroke-width=".7"/><path d="M-37 4 C-14 1 12 8 40 5 M-34 11 C-3 10 12 13 42 10" stroke-width=".55"/></g><path d="M306 462 C300 448 305 439 307 428 M329 459 C333 448 326 441 326 437" fill="none" stroke="#F4F0E9" stroke-width="1"/><path d="M307 441 C292 440 292 428 307 433 M327 447 C342 444 340 433 328 439" fill="#8F9B7A" opacity=".75"/><g transform="translate(856 398) scale(0.7)"><ellipse cy="-30" rx="135" ry="110" fill="url(#ember)"/>
    <path d="M-34 5 C-78 -34 -28 -70 -15 -111 C-4 -86 27 -75 19 -41 C43 -52 39 -75 44 -86 C83 -40 62 -1 26 9 C5 18 -12 17 -34 5Z" fill="#B25B3E" opacity=".32"/>
    <g fill="none" stroke="#CE7B5C" stroke-linecap="round"><path d="M-34 5 C-78 -34 -28 -70 -15 -111 C-4 -86 27 -75 19 -41 C43 -52 39 -75 44 -86 C83 -40 62 -1 26 9" stroke-width="1.1"/><path d="M-13 6 C-39 -25 -9 -46 -6 -67 C-2 -39 27 -21 16 7" stroke="#F4F0E9" stroke-width="1.1" opacity=".8"/><path d="M-61 20 C-10 13 18 26 57 19 M-46 29 C-19 33 8 25 42 31" stroke-width="1.4"/><path d="M-110 40 C-65 60 56 58 114 41 M-142 52 C-75 80 96 71 148 51" stroke-width=".65" opacity=".45"/></g><circle cx="-4" cy="-119" r="1.4" fill="#CE7B5C"/><circle cx="25" cy="-102" r="1" fill="#F4F0E9"/></g><path d="M28 561 C200 543 307 578 494 561 S775 577 972 554 M27 575 C256 558 388 593 578 576 S852 585 972 570" fill="none" stroke="#B8AA96" stroke-width="1" opacity=".32"/></svg>